<?xml version="1.0" encoding="utf-8"?>
<!-- Generator: Adobe Illustrator 16.0.0, SVG Export Plug-In . SVG Version: 6.00 Build 0)  -->
<!DOCTYPE svg PUBLIC "-//W3C//DTD SVG 1.1//EN" "http://www.w3.org/Graphics/SVG/1.1/DTD/svg11.dtd">
<svg version="1.1"
	 id="svg10509" xmlns:dc="http://purl.org/dc/elements/1.1/" xmlns:cc="http://creativecommons.org/ns#" xmlns:rdf="http://www.w3.org/1999/02/22-rdf-syntax-ns#" xmlns:svg="http://www.w3.org/2000/svg" xmlns:sodipodi="http://sodipodi.sourceforge.net/DTD/sodipodi-0.dtd" xmlns:inkscape="http://www.inkscape.org/namespaces/inkscape" inkscape:version="0.91 r13725" sodipodi:docname="uni.svg"
	 xmlns="http://www.w3.org/2000/svg" xmlns:xlink="http://www.w3.org/1999/xlink" x="0px" y="0px" width="228px" height="68px"
	 viewBox="0 94 228 68" enable-background="new 0 94 228 68" xml:space="preserve">
<sodipodi:namedview  borderlayer="false" fit-margin-left="0" fit-margin-top="0" showgrid="true" inkscape:cy="52.978192" inkscape:cx="151.66256" inkscape:zoom="1.979899" borderopacity="1.0" bordercolor="#666666" pagecolor="#ffffff" id="base" inkscape:snap-page="true" inkscape:snap-text-baseline="true" inkscape:snap-center="true" inkscape:snap-object-midpoints="true" inkscape:window-maximized="1" inkscape:window-y="27" inkscape:window-x="0" inkscape:window-height="741" inkscape:window-width="1366" fit-margin-bottom="0" fit-margin-right="0" inkscape:snap-midpoints="true" inkscape:snap-smooth-nodes="true" inkscape:object-nodes="true" inkscape:object-paths="true" inkscape:snap-bbox-midpoints="true" inkscape:current-layer="layer1" inkscape:document-units="px" inkscape:pageopacity="0.0" inkscape:bbox-nodes="true" inkscape:snap-bbox="false" inkscape:bbox-paths="true" inkscape:pageshadow="2" inkscape:snap-intersection-paths="true" inkscape:snap-bbox-edge-midpoints="true">
	<inkscape:grid  type="xygrid" originy="-685.00001" originx="-250.00002" id="grid10939"></inkscape:grid>
</sodipodi:namedview>
<g>
	<polygon fill="#FFFFFF" points="51.844,110.244 32.095,110.244 32.095,107.423 51.844,107.423 51.844,110.244 	"/>
	<path fill="#FFFFFF" d="M11.821,134.079H9.083v-1.036c-0.737,0.778-1.672,1.168-2.808,1.168c-1.108,0-1.997-0.334-2.658-0.994
		c-0.763-0.765-1.144-1.829-1.144-3.197v-7.189h2.827v6.804c0,0.704,0.199,1.236,0.597,1.595c0.329,0.303,0.743,0.455,1.239,0.455
		c0.512,0,0.933-0.152,1.259-0.455c0.397-0.358,0.598-0.891,0.598-1.595v-6.804h2.829V134.079L11.821,134.079z"/>
	<path fill="#FFFFFF" d="M23.84,134.079h-2.828v-6.802c0-0.704-0.2-1.237-0.602-1.597c-0.33-0.3-0.745-0.454-1.244-0.454
		c-0.516,0-0.938,0.154-1.266,0.454c-0.404,0.359-0.603,0.893-0.603,1.597v6.802h-2.806V122.83h2.743v1.037
		c0.735-0.776,1.67-1.166,2.807-1.166c1.109,0,1.993,0.332,2.655,0.993c0.763,0.762,1.143,1.827,1.143,3.194V134.079L23.84,134.079z
		"/>
	<path fill="#FFFFFF" d="M29.385,134.079h-2.828V122.83h2.828V134.079L29.385,134.079z M29.385,120.93h-2.828v-2.287h2.828V120.93
		L29.385,120.93z"/>
	<path fill="#FFFFFF" d="M38.681,128.444c0-0.991-0.08-1.704-0.234-2.138c-0.287-0.72-0.834-1.08-1.644-1.08
		c-0.812,0-1.36,0.36-1.644,1.08c-0.158,0.434-0.236,1.146-0.236,2.138c0,0.993,0.078,1.705,0.236,2.137
		c0.284,0.736,0.832,1.103,1.644,1.103c0.81,0,1.356-0.366,1.644-1.103C38.601,130.149,38.681,129.438,38.681,128.444
		L38.681,128.444z M41.51,128.444c0,1.15-0.053,2.017-0.154,2.589c-0.157,0.939-0.49,1.656-0.993,2.16
		c-0.674,0.679-1.59,1.018-2.742,1.018c-1.152,0-2.085-0.395-2.806-1.188v1.056h-2.721v-15.372h2.828v5.115
		c0.675-0.745,1.577-1.121,2.713-1.121c1.146,0,2.059,0.339,2.729,1.017c0.502,0.504,0.833,1.221,0.991,2.156
		C41.458,126.451,41.51,127.307,41.51,128.444L41.51,128.444z"/>
	<polygon fill="#FFFFFF" points="51.844,134.079 43.274,134.079 43.274,131.944 48.261,125.358 43.555,125.358 43.555,122.83 
		51.844,122.83 51.844,124.969 46.793,131.555 51.844,131.555 51.844,134.079 	"/>
	<polygon fill="#FFFFFF" points="51.844,146.92 32.095,146.92 32.095,144.099 51.844,144.099 51.844,146.92 	"/>
	<path fill="#FFFFFF" d="M11.821,134.079H9.083v-1.036c-0.737,0.778-1.672,1.168-2.808,1.168c-1.108,0-1.997-0.334-2.658-0.994
		c-0.763-0.765-1.144-1.829-1.144-3.197v-7.189h2.827v6.804c0,0.704,0.199,1.236,0.597,1.595c0.329,0.303,0.743,0.455,1.239,0.455
		c0.512,0,0.933-0.152,1.259-0.455c0.397-0.358,0.598-0.891,0.598-1.595v-6.804h2.829V134.079L11.821,134.079z"/>
	<path fill="#FFFFFF" d="M23.84,134.079h-2.828v-6.802c0-0.704-0.2-1.237-0.602-1.597c-0.33-0.3-0.745-0.454-1.244-0.454
		c-0.516,0-0.938,0.154-1.266,0.454c-0.404,0.359-0.603,0.893-0.603,1.597v6.802h-2.806V122.83h2.743v1.037
		c0.735-0.776,1.67-1.166,2.807-1.166c1.109,0,1.993,0.332,2.655,0.993c0.763,0.762,1.143,1.827,1.143,3.194V134.079L23.84,134.079z
		"/>
	<path fill="#FFFFFF" d="M29.385,134.079h-2.828V122.83h2.828V134.079L29.385,134.079z M29.385,120.93h-2.828v-2.287h2.828V120.93
		L29.385,120.93z"/>
	<path fill="#FFFFFF" d="M38.681,128.444c0-0.991-0.08-1.704-0.234-2.138c-0.287-0.72-0.834-1.08-1.644-1.08
		c-0.812,0-1.36,0.36-1.644,1.08c-0.158,0.434-0.236,1.146-0.236,2.138c0,0.993,0.078,1.705,0.236,2.137
		c0.284,0.736,0.832,1.103,1.644,1.103c0.81,0,1.356-0.366,1.644-1.103C38.601,130.149,38.681,129.438,38.681,128.444
		L38.681,128.444z M41.51,128.444c0,1.15-0.053,2.017-0.154,2.589c-0.157,0.939-0.49,1.656-0.993,2.16
		c-0.674,0.679-1.59,1.018-2.742,1.018c-1.152,0-2.085-0.395-2.806-1.188v1.056h-2.721v-15.372h2.828v5.115
		c0.675-0.745,1.577-1.121,2.713-1.121c1.146,0,2.059,0.339,2.729,1.017c0.502,0.504,0.833,1.221,0.991,2.156
		C41.458,126.451,41.51,127.307,41.51,128.444L41.51,128.444z"/>
	<polygon fill="#FFFFFF" points="51.844,134.079 43.274,134.079 43.274,131.944 48.261,125.358 43.555,125.358 43.555,122.83 
		51.844,122.83 51.844,124.969 46.793,131.555 51.844,131.555 51.844,134.079 	"/>
	<polygon fill="#FFFFFF" points="73.146,108.805 73.146,110.755 76.278,110.755 76.278,112.138 73.146,112.138 73.146,115.359 
		71.596,115.359 71.596,107.422 76.824,107.422 76.824,108.805 73.146,108.805 	"/>
	<path fill="#FFFFFF" d="M80.603,112.907h-1.148c-0.523,0-0.813,0.244-0.813,0.657c0,0.401,0.267,0.669,0.835,0.669
		c0.401,0,0.658-0.033,0.915-0.279c0.156-0.146,0.211-0.379,0.211-0.735V112.907L80.603,112.907z M80.637,115.359v-0.502
		c-0.39,0.39-0.759,0.558-1.427,0.558c-0.658,0-1.137-0.168-1.482-0.513c-0.313-0.324-0.479-0.791-0.479-1.305
		c0-0.925,0.635-1.683,1.984-1.683h1.371v-0.291c0-0.635-0.312-0.913-1.081-0.913c-0.557,0-0.814,0.134-1.115,0.479l-0.925-0.902
		c0.568-0.624,1.125-0.803,2.096-0.803c1.628,0,2.475,0.691,2.475,2.051v3.824H80.637L80.637,115.359z"/>
	<polygon fill="#FFFFFF" points="87.035,115.359 85.608,112.939 84.995,113.631 84.995,115.359 83.545,115.359 83.545,107.422 
		84.995,107.422 84.995,111.926 86.924,109.552 88.673,109.552 86.6,111.892 88.83,115.359 87.035,115.359 	"/>
	<path fill="#FFFFFF" d="M93.126,115.359v-0.535c-0.379,0.401-0.915,0.603-1.45,0.603c-0.58,0-1.048-0.19-1.371-0.513
		c-0.468-0.47-0.591-1.016-0.591-1.651v-3.711h1.449v3.511c0,0.792,0.501,1.059,0.958,1.059c0.457,0,0.97-0.267,0.97-1.059v-3.511
		h1.449v5.808H93.126L93.126,115.359z"/>
	<path fill="#FFFFFF" d="M97.735,115.359c-1.193,0-1.695-0.837-1.695-1.661v-6.276h1.45v6.188c0,0.345,0.145,0.523,0.513,0.523
		h0.557v1.227H97.735L97.735,115.359z"/>
	<path fill="#FFFFFF" d="M101.397,115.359c-1.181,0-1.683-0.837-1.683-1.661v-2.877h-0.614v-1.103h0.614v-1.718h1.449v1.718h1.026
		v1.103h-1.026v2.788c0,0.334,0.156,0.523,0.501,0.523h0.525v1.227H101.397L101.397,115.359z"/>
	<path fill="#FFFFFF" d="M106.28,108.604v-1.394h1.238v1.394H106.28L106.28,108.604z M106.503,112.907h-1.148
		c-0.524,0-0.814,0.244-0.814,0.657c0,0.401,0.268,0.669,0.836,0.669c0.401,0,0.658-0.033,0.914-0.279
		c0.156-0.146,0.212-0.379,0.212-0.735V112.907L106.503,112.907z M103.816,108.604v-1.394h1.238v1.394H103.816L103.816,108.604z
		 M106.537,115.359v-0.502c-0.391,0.39-0.758,0.558-1.427,0.558c-0.659,0-1.137-0.168-1.483-0.513
		c-0.312-0.324-0.479-0.791-0.479-1.305c0-0.925,0.636-1.683,1.984-1.683h1.372v-0.291c0-0.635-0.312-0.913-1.081-0.913
		c-0.557,0-0.813,0.134-1.115,0.479l-0.925-0.902c0.568-0.624,1.125-0.803,2.095-0.803c1.627,0,2.475,0.691,2.475,2.051v3.824
		H106.537L106.537,115.359z"/>
	<path fill="#FFFFFF" d="M111.288,115.359c-1.182,0-1.683-0.837-1.683-1.661v-2.877h-0.613v-1.103h0.613v-1.718h1.45v1.718h1.025
		v1.103h-1.025v2.788c0,0.334,0.156,0.523,0.501,0.523h0.523v1.227H111.288L111.288,115.359z"/>
	<path fill="#FFFFFF" d="M117.608,110.821v4.538h-1.45v-4.538h-0.601v-1.103h0.601v-0.725c0-0.825,0.514-1.662,1.695-1.662h0.825
		v1.227h-0.568c-0.346,0-0.502,0.189-0.502,0.524v0.636h1.07v1.103H117.608L117.608,110.821z"/>
	<path fill="#FFFFFF" d="M122.752,108.604v-1.394h1.237v1.394H122.752L122.752,108.604z M120.288,108.604v-1.394h1.237v1.394
		H120.288L120.288,108.604z M123.132,115.359v-0.535c-0.38,0.401-0.915,0.603-1.45,0.603c-0.58,0-1.048-0.19-1.371-0.513
		c-0.469-0.47-0.592-1.016-0.592-1.651v-3.711h1.45v3.511c0,0.792,0.502,1.059,0.959,1.059c0.456,0,0.969-0.267,0.969-1.059v-3.511
		h1.45v5.808H123.132L123.132,115.359z"/>
	<path fill="#FFFFFF" d="M129.235,111.134c-0.222-0.223-0.411-0.345-0.769-0.345c-0.445,0-0.938,0.333-0.938,1.07v3.5h-1.448v-5.808
		h1.416v0.557c0.278-0.334,0.835-0.624,1.46-0.624c0.568,0,0.971,0.145,1.372,0.546L129.235,111.134L129.235,111.134z"/>
	<path fill="#FFFFFF" d="M137.729,109.295c-0.268-0.323-0.624-0.49-1.159-0.49h-1.172v5.172h1.172c0.535,0,0.892-0.168,1.159-0.489
		c0.29-0.358,0.335-0.927,0.335-2.13C138.064,110.153,138.02,109.651,137.729,109.295L137.729,109.295z M138.811,114.602
		c-0.523,0.523-1.271,0.758-2.096,0.758h-2.865v-7.938h2.865c0.825,0,1.572,0.234,2.096,0.758c0.893,0.892,0.804,1.984,0.804,3.178
		C139.614,112.55,139.703,113.709,138.811,114.602L138.811,114.602z"/>
	<path fill="#FFFFFF" d="M144.264,111.29c-0.157-0.346-0.479-0.602-0.971-0.602c-0.49,0-0.813,0.256-0.969,0.602
		c-0.09,0.212-0.123,0.368-0.135,0.625h2.207C144.386,111.658,144.352,111.502,144.264,111.29L144.264,111.29z M142.189,112.907
		c0,0.746,0.457,1.293,1.271,1.293c0.635,0,0.946-0.179,1.314-0.547l0.881,0.858c-0.591,0.591-1.158,0.915-2.207,0.915
		c-1.371,0-2.687-0.625-2.687-2.978c0-1.895,1.025-2.965,2.53-2.965c1.616,0,2.531,1.182,2.531,2.775v0.647H142.189L142.189,112.907
		z"/>
	<path fill="#FFFFFF" d="M149.123,115.427c-0.914,0-1.739-0.102-2.475-0.837l0.947-0.947c0.479,0.479,1.104,0.546,1.55,0.546
		c0.501,0,1.024-0.167,1.024-0.602c0-0.29-0.155-0.491-0.612-0.535l-0.914-0.09c-1.048-0.1-1.694-0.557-1.694-1.627
		c0-1.204,1.059-1.851,2.24-1.851c0.903,0,1.661,0.155,2.219,0.68l-0.892,0.902c-0.335-0.3-0.849-0.389-1.35-0.389
		c-0.58,0-0.825,0.267-0.825,0.557c0,0.212,0.09,0.457,0.604,0.502l0.913,0.089c1.148,0.111,1.728,0.725,1.728,1.706
		C151.586,114.812,150.494,115.427,149.123,115.427L149.123,115.427z"/>
	<path fill="#FFFFFF" d="M152.746,115.359v-5.808h1.45v5.808H152.746L152.746,115.359z M152.724,108.559v-1.182h1.483v1.182H152.724
		L152.724,108.559z"/>
	<path fill="#FFFFFF" d="M157.9,110.789c-0.858,0-0.947,0.735-0.947,1.505c0,0.769,0.089,1.515,0.947,1.515
		c0.859,0,0.959-0.746,0.959-1.515C158.859,111.524,158.76,110.789,157.9,110.789L157.9,110.789z M157.756,117.556
		c-0.892,0-1.506-0.18-2.107-0.758l0.903-0.915c0.323,0.312,0.646,0.446,1.137,0.446c0.87,0,1.171-0.613,1.171-1.204v-0.591
		c-0.379,0.424-0.813,0.58-1.383,0.58s-1.059-0.189-1.383-0.513c-0.545-0.547-0.59-1.293-0.59-2.308s0.045-1.75,0.59-2.297
		c0.324-0.323,0.825-0.513,1.394-0.513c0.614,0,1.015,0.167,1.416,0.613v-0.546h1.405v5.596
		C160.309,116.541,159.316,117.556,157.756,117.556L157.756,117.556z"/>
	<path fill="#FFFFFF" d="M165.221,115.359v-3.512c0-0.791-0.502-1.059-0.959-1.059s-0.971,0.268-0.971,1.059v3.512h-1.449v-5.808
		h1.417v0.534c0.379-0.401,0.914-0.602,1.449-0.602c0.579,0,1.048,0.189,1.371,0.513c0.468,0.468,0.591,1.014,0.591,1.649v3.713
		H165.221L165.221,115.359z"/>
	<path fill="#FFFFFF" d="M174.16,115.359v-0.535c-0.379,0.401-0.914,0.603-1.449,0.603c-0.579,0-1.048-0.19-1.371-0.513
		c-0.468-0.47-0.59-1.016-0.59-1.651v-3.711h1.448v3.511c0,0.792,0.502,1.059,0.959,1.059s0.97-0.267,0.97-1.059v-3.511h1.45v5.808
		H174.16L174.16,115.359z"/>
	<path fill="#FFFFFF" d="M180.488,115.359v-3.512c0-0.791-0.501-1.059-0.959-1.059c-0.456,0-0.969,0.268-0.969,1.059v3.512h-1.45
		v-5.808h1.417v0.534c0.378-0.401,0.914-0.602,1.448-0.602c0.58,0,1.049,0.189,1.371,0.513c0.469,0.468,0.592,1.014,0.592,1.649
		v3.713H180.488L180.488,115.359z"/>
	<path fill="#FFFFFF" d="M185.668,110.789c-0.87,0-0.98,0.713-0.98,1.66c0,0.948,0.11,1.672,0.98,1.672
		c0.869,0,0.992-0.724,0.992-1.672C186.66,111.502,186.537,110.789,185.668,110.789L185.668,110.789z M186.694,115.359v-0.547
		c-0.402,0.446-0.825,0.614-1.438,0.614c-0.568,0-1.104-0.201-1.427-0.524c-0.58-0.58-0.591-1.584-0.591-2.453
		s0.011-1.861,0.591-2.441c0.323-0.323,0.847-0.523,1.416-0.523c0.591,0,1.036,0.155,1.415,0.579v-2.642h1.449v7.938H186.694
		L186.694,115.359z"/>
	<polygon fill="#FFFFFF" points="197.049,115.359 195.01,111.747 193.983,112.974 193.983,115.359 192.435,115.359 192.435,107.422 
		193.983,107.422 193.983,110.877 196.781,107.422 198.666,107.422 196.035,110.576 198.855,115.359 197.049,115.359 	"/>
	<path fill="#FFFFFF" d="M202.527,108.604v-1.394h1.237v1.394H202.527L202.527,108.604z M200.062,108.604v-1.394h1.237v1.394
		H200.062L200.062,108.604z M202.905,115.359v-0.535c-0.378,0.401-0.913,0.603-1.449,0.603c-0.579,0-1.048-0.19-1.37-0.513
		c-0.469-0.47-0.591-1.016-0.591-1.651v-3.711h1.448v3.511c0,0.792,0.502,1.059,0.96,1.059c0.456,0,0.969-0.267,0.969-1.059v-3.511
		h1.449v5.808H202.905L202.905,115.359z"/>
	<path fill="#FFFFFF" d="M209.233,115.359v-3.512c0-0.791-0.502-1.059-0.958-1.059c-0.457,0-0.97,0.268-0.97,1.059v3.512h-1.45
		v-5.808h1.417v0.534c0.379-0.401,0.914-0.602,1.448-0.602c0.58,0,1.049,0.189,1.371,0.513c0.469,0.468,0.592,1.014,0.592,1.649
		v3.713H209.233L209.233,115.359z"/>
	<path fill="#FFFFFF" d="M214.176,115.427c-0.913,0-1.738-0.102-2.474-0.837l0.947-0.947c0.479,0.479,1.104,0.546,1.55,0.546
		c0.501,0,1.024-0.167,1.024-0.602c0-0.29-0.155-0.491-0.612-0.535l-0.914-0.09c-1.048-0.1-1.695-0.557-1.695-1.627
		c0-1.204,1.06-1.851,2.241-1.851c0.903,0,1.661,0.155,2.22,0.68l-0.894,0.902c-0.334-0.3-0.848-0.389-1.35-0.389
		c-0.578,0-0.823,0.267-0.823,0.557c0,0.212,0.088,0.457,0.602,0.502l0.913,0.089c1.149,0.111,1.729,0.725,1.729,1.706
		C216.641,114.812,215.548,115.427,214.176,115.427L214.176,115.427z"/>
	<path fill="#FFFFFF" d="M219.736,115.359c-1.181,0-1.683-0.837-1.683-1.661v-2.877h-0.613v-1.103h0.613v-1.718h1.449v1.718h1.026
		v1.103h-1.026v2.788c0,0.334,0.155,0.523,0.502,0.523h0.524v1.227H219.736L219.736,115.359z"/>
	<path fill="#FFFFFF" d="M224.94,111.29c-0.156-0.346-0.479-0.602-0.972-0.602c-0.49,0-0.812,0.256-0.969,0.602
		c-0.09,0.212-0.123,0.368-0.134,0.625h2.207C225.062,111.658,225.029,111.502,224.94,111.29L224.94,111.29z M222.866,112.907
		c0,0.746,0.457,1.293,1.271,1.293c0.637,0,0.948-0.179,1.315-0.547l0.882,0.858c-0.592,0.591-1.16,0.915-2.208,0.915
		c-1.371,0-2.687-0.625-2.687-2.978c0-1.895,1.025-2.965,2.529-2.965c1.618,0,2.531,1.182,2.531,2.775v0.647H222.866
		L222.866,112.907z"/>
	<polygon fill="#FFFFFF" points="73.146,124.596 73.146,126.547 76.278,126.547 76.278,127.93 73.146,127.93 73.146,131.15 
		71.596,131.15 71.596,123.213 76.824,123.213 76.824,124.596 73.146,124.596 	"/>
	<path fill="#FFFFFF" d="M80.603,128.698h-1.148c-0.523,0-0.813,0.245-0.813,0.658c0,0.4,0.267,0.668,0.835,0.668
		c0.401,0,0.658-0.032,0.915-0.278c0.156-0.145,0.211-0.379,0.211-0.736V128.698L80.603,128.698z M80.637,131.15v-0.501
		c-0.39,0.39-0.759,0.557-1.427,0.557c-0.658,0-1.137-0.167-1.482-0.513c-0.313-0.322-0.479-0.791-0.479-1.305
		c0-0.925,0.635-1.683,1.984-1.683h1.371v-0.29c0-0.636-0.312-0.914-1.081-0.914c-0.557,0-0.814,0.134-1.115,0.479l-0.925-0.903
		c0.568-0.624,1.125-0.803,2.096-0.803c1.628,0,2.475,0.691,2.475,2.051v3.824H80.637L80.637,131.15z"/>
	<path fill="#FFFFFF" d="M85.866,131.218c-1.16,0-2.597-0.624-2.597-2.977s1.438-2.966,2.597-2.966c0.802,0,1.404,0.245,1.917,0.781
		l-0.98,0.98c-0.301-0.323-0.557-0.457-0.937-0.457c-0.345,0-0.613,0.122-0.825,0.379c-0.223,0.279-0.323,0.669-0.323,1.282
		s0.1,1.014,0.323,1.293c0.212,0.257,0.48,0.379,0.825,0.379c0.379,0,0.635-0.134,0.937-0.457l0.98,0.971
		C87.27,130.961,86.668,131.218,85.866,131.218L85.866,131.218z"/>
	<path fill="#FFFFFF" d="M91.657,126.836c-0.167-0.167-0.39-0.256-0.68-0.256c-0.29,0-0.501,0.089-0.669,0.256
		c-0.302,0.302-0.334,0.803-0.334,1.405c0,0.602,0.033,1.115,0.334,1.416c0.167,0.167,0.379,0.256,0.669,0.256
		c0.29,0,0.513-0.089,0.68-0.256c0.302-0.301,0.335-0.814,0.335-1.416C91.992,127.639,91.959,127.138,91.657,126.836L91.657,126.836
		z M92.783,130.504c-0.356,0.379-0.947,0.714-1.805,0.714s-1.438-0.335-1.795-0.714c-0.525-0.546-0.658-1.203-0.658-2.263
		c0-1.048,0.133-1.706,0.658-2.252c0.356-0.379,0.937-0.714,1.795-0.714s1.449,0.335,1.805,0.714
		c0.524,0.546,0.658,1.204,0.658,2.252C93.44,129.301,93.307,129.958,92.783,130.504L92.783,130.504z"/>
	<path fill="#FFFFFF" d="M96.395,131.15c-1.192,0-1.694-0.836-1.694-1.66v-6.277h1.449v6.188c0,0.346,0.145,0.524,0.513,0.524h0.558
		v1.226H96.395L96.395,131.15z"/>
	<path fill="#FFFFFF" d="M100.057,131.15c-1.181,0-1.683-0.836-1.683-1.66v-2.877h-0.613v-1.104h0.613v-1.717h1.449v1.717h1.026
		v1.104h-1.026v2.787c0,0.335,0.156,0.524,0.501,0.524h0.524v1.226H100.057L100.057,131.15z"/>
	<path fill="#FFFFFF" d="M105.163,128.698h-1.148c-0.524,0-0.814,0.245-0.814,0.658c0,0.4,0.268,0.668,0.835,0.668
		c0.402,0,0.658-0.032,0.915-0.278c0.156-0.145,0.211-0.379,0.211-0.736V128.698L105.163,128.698z M103.958,124.418l-1.271-1.896
		h1.528l0.713,1.896H103.958L103.958,124.418z M105.196,131.15v-0.501c-0.39,0.39-0.757,0.557-1.427,0.557
		c-0.658,0-1.137-0.167-1.482-0.513c-0.313-0.322-0.479-0.791-0.479-1.305c0-0.925,0.635-1.683,1.984-1.683h1.371v-0.29
		c0-0.636-0.312-0.914-1.082-0.914c-0.557,0-0.813,0.134-1.114,0.479l-0.926-0.903c0.569-0.624,1.126-0.803,2.096-0.803
		c1.627,0,2.475,0.691,2.475,2.051v3.824H105.196L105.196,131.15z"/>
	<path fill="#FFFFFF" d="M112.944,126.58c-0.87,0-0.981,0.714-0.981,1.661s0.111,1.672,0.981,1.672c0.87,0,0.992-0.725,0.992-1.672
		S113.813,126.58,112.944,126.58L112.944,126.58z M113.969,131.15v-0.546c-0.401,0.446-0.825,0.613-1.438,0.613
		c-0.568,0-1.104-0.201-1.427-0.524c-0.579-0.579-0.591-1.582-0.591-2.452s0.012-1.862,0.591-2.441
		c0.323-0.323,0.847-0.524,1.417-0.524c0.59,0,1.036,0.156,1.415,0.58v-2.643h1.45v7.938H113.969L113.969,131.15z"/>
	<path fill="#FFFFFF" d="M116.923,131.15v-5.808h1.449v5.808H116.923L116.923,131.15z M116.9,124.351v-1.182h1.483v1.182H116.9
		L116.9,124.351z"/>
	<path fill="#FFFFFF" d="M126.564,125.086c-0.268-0.323-0.624-0.49-1.159-0.49h-1.171v5.173h1.171c0.535,0,0.892-0.167,1.159-0.49
		c0.289-0.357,0.335-0.926,0.335-2.13S126.854,125.442,126.564,125.086L126.564,125.086z M127.646,130.393
		c-0.524,0.524-1.271,0.758-2.096,0.758h-2.866v-7.938h2.866c0.824,0,1.571,0.234,2.096,0.759c0.891,0.892,0.803,1.983,0.803,3.177
		S128.537,129.5,127.646,130.393L127.646,130.393z"/>
	<path fill="#FFFFFF" d="M133.098,127.082c-0.155-0.346-0.479-0.602-0.97-0.602s-0.813,0.256-0.97,0.602
		c-0.089,0.212-0.123,0.367-0.135,0.624h2.209C133.22,127.449,133.187,127.294,133.098,127.082L133.098,127.082z M131.023,128.698
		c0,0.746,0.458,1.294,1.271,1.294c0.636,0,0.948-0.18,1.315-0.548l0.882,0.859c-0.593,0.59-1.16,0.914-2.208,0.914
		c-1.371,0-2.687-0.624-2.687-2.977c0-1.896,1.025-2.966,2.53-2.966c1.616,0,2.531,1.182,2.531,2.776v0.646H131.023L131.023,128.698
		z"/>
	<path fill="#FFFFFF" d="M137.958,131.218c-0.914,0-1.74-0.101-2.476-0.837l0.948-0.947c0.479,0.479,1.103,0.547,1.549,0.547
		c0.502,0,1.026-0.168,1.026-0.603c0-0.29-0.157-0.49-0.612-0.535l-0.916-0.09c-1.047-0.1-1.694-0.557-1.694-1.627
		c0-1.203,1.059-1.851,2.241-1.851c0.902,0,1.661,0.156,2.219,0.68l-0.893,0.904c-0.333-0.301-0.847-0.391-1.349-0.391
		c-0.58,0-0.824,0.268-0.824,0.558c0,0.212,0.089,0.457,0.602,0.501l0.914,0.09c1.147,0.111,1.728,0.725,1.728,1.705
		C140.421,130.604,139.329,131.218,137.958,131.218L137.958,131.218z"/>
	<path fill="#FFFFFF" d="M141.581,131.15v-5.808h1.448v5.808H141.581L141.581,131.15z M141.559,124.351v-1.182h1.482v1.182H141.559
		L141.559,124.351z"/>
	<path fill="#FFFFFF" d="M146.735,126.58c-0.858,0-0.947,0.735-0.947,1.505s0.089,1.517,0.947,1.517s0.959-0.747,0.959-1.517
		S147.594,126.58,146.735,126.58L146.735,126.58z M146.59,133.347c-0.891,0-1.504-0.178-2.106-0.758l0.903-0.914
		c0.322,0.312,0.646,0.446,1.137,0.446c0.87,0,1.171-0.614,1.171-1.204v-0.592c-0.379,0.424-0.813,0.58-1.382,0.58
		c-0.569,0-1.06-0.189-1.383-0.513c-0.546-0.546-0.592-1.293-0.592-2.308s0.046-1.75,0.592-2.296
		c0.323-0.324,0.825-0.514,1.394-0.514c0.613,0,1.014,0.167,1.416,0.613v-0.546h1.405v5.596
		C149.145,132.332,148.15,133.347,146.59,133.347L146.59,133.347z"/>
	<path fill="#FFFFFF" d="M154.056,131.15v-3.512c0-0.791-0.502-1.059-0.959-1.059s-0.97,0.268-0.97,1.059v3.512h-1.449v-5.808h1.415
		v0.534c0.38-0.4,0.915-0.602,1.45-0.602c0.579,0,1.047,0.189,1.37,0.514c0.469,0.468,0.592,1.015,0.592,1.648v3.713H154.056
		L154.056,131.15z"/>
	<path fill="#FFFFFF" d="M162.862,127.082c-0.156-0.346-0.479-0.602-0.971-0.602c-0.49,0-0.813,0.256-0.97,0.602
		c-0.089,0.212-0.123,0.367-0.134,0.624h2.207C162.984,127.449,162.951,127.294,162.862,127.082L162.862,127.082z M160.788,128.698
		c0,0.746,0.457,1.294,1.271,1.294c0.635,0,0.947-0.18,1.315-0.548l0.881,0.859c-0.592,0.59-1.16,0.914-2.209,0.914
		c-1.37,0-2.686-0.624-2.686-2.977c0-1.896,1.025-2.966,2.53-2.966c1.616,0,2.53,1.182,2.53,2.776v0.646H160.788L160.788,128.698z"
		/>
	<path fill="#FFFFFF" d="M171.121,125.555l-1.004,2.887h1.973L171.121,125.555L171.121,125.555z M172.971,131.15l-0.468-1.404h-2.82
		l-0.479,1.404h-1.616l2.886-7.938h1.217l2.897,7.938H172.971L172.971,131.15z"/>
	<path fill="#FFFFFF" d="M178.738,126.926c-0.223-0.224-0.412-0.346-0.77-0.346c-0.445,0-0.937,0.335-0.937,1.07v3.5h-1.448v-5.808
		H177v0.557c0.277-0.334,0.836-0.624,1.46-0.624c0.567,0,0.97,0.146,1.371,0.546L178.738,126.926L178.738,126.926z"/>
	<path fill="#FFFFFF" d="M182.829,131.15c-1.182,0-1.684-0.836-1.684-1.66v-2.877h-0.613v-1.104h0.613v-1.717h1.449v1.717h1.025
		v1.104h-1.025v2.787c0,0.335,0.156,0.524,0.502,0.524h0.523v1.226H182.829L182.829,131.15z"/>
	<path fill="#FFFFFF" d="M184.863,131.15v-5.808h1.449v5.808H184.863L184.863,131.15z M184.841,124.351v-1.182h1.483v1.182H184.841
		L184.841,124.351z"/>
	<polygon fill="#FFFFFF" points="73.146,140.387 73.146,142.338 76.278,142.338 76.278,143.72 73.146,143.72 73.146,146.941 
		71.596,146.941 71.596,139.005 76.824,139.005 76.824,140.387 73.146,140.387 	"/>
	<path fill="#FFFFFF" d="M80.603,144.49h-1.148c-0.523,0-0.813,0.245-0.813,0.657c0,0.401,0.267,0.669,0.835,0.669
		c0.401,0,0.658-0.033,0.915-0.279c0.156-0.145,0.211-0.378,0.211-0.735V144.49L80.603,144.49z M80.637,146.941v-0.501
		c-0.39,0.39-0.759,0.558-1.427,0.558c-0.658,0-1.137-0.168-1.482-0.513c-0.313-0.323-0.479-0.792-0.479-1.305
		c0-0.926,0.635-1.683,1.984-1.683h1.371v-0.291c0-0.635-0.312-0.913-1.081-0.913c-0.557,0-0.814,0.134-1.115,0.479l-0.925-0.902
		c0.568-0.624,1.125-0.804,2.096-0.804c1.628,0,2.475,0.691,2.475,2.052v3.823H80.637L80.637,146.941z"/>
	<path fill="#FFFFFF" d="M85.866,147.009c-1.16,0-2.597-0.624-2.597-2.977c0-2.352,1.438-2.966,2.597-2.966
		c0.802,0,1.404,0.246,1.917,0.781l-0.98,0.98c-0.301-0.323-0.557-0.457-0.937-0.457c-0.345,0-0.613,0.123-0.825,0.379
		c-0.223,0.279-0.323,0.67-0.323,1.282c0,0.613,0.1,1.015,0.323,1.293c0.212,0.257,0.48,0.38,0.825,0.38
		c0.379,0,0.635-0.135,0.937-0.457l0.98,0.97C87.27,146.752,86.668,147.009,85.866,147.009L85.866,147.009z"/>
	<path fill="#FFFFFF" d="M92.247,146.941v-0.534c-0.38,0.401-0.915,0.602-1.45,0.602c-0.58,0-1.048-0.189-1.372-0.512
		c-0.468-0.469-0.59-1.015-0.59-1.65v-3.713h1.448v3.512c0,0.791,0.502,1.06,0.959,1.06c0.457,0,0.97-0.269,0.97-1.06v-3.512h1.449
		v5.808H92.247L92.247,146.941z"/>
	<path fill="#FFFFFF" d="M96.854,146.941c-1.192,0-1.694-0.835-1.694-1.66v-6.276h1.449v6.187c0,0.346,0.145,0.524,0.514,0.524
		h0.557v1.226H96.854L96.854,146.941z"/>
	<path fill="#FFFFFF" d="M100.518,146.941c-1.182,0-1.683-0.835-1.683-1.66v-2.877h-0.614v-1.103h0.614v-1.717h1.449v1.717h1.026
		v1.103h-1.026v2.787c0,0.335,0.156,0.524,0.502,0.524h0.524v1.226H100.518L100.518,146.941z"/>
	<path fill="#FFFFFF" d="M105.03,147.878c-0.123,0.323-0.257,0.569-0.435,0.747c-0.335,0.335-0.77,0.446-1.25,0.446h-0.568v-1.305
		h0.334c0.413,0,0.58-0.1,0.726-0.523l0.244-0.713l-1.984-5.396h1.528l1.203,3.59l1.16-3.59h1.527L105.03,147.878L105.03,147.878z"
		/>
	<path fill="#FFFFFF" d="M113.847,142.628c-0.167-0.168-0.389-0.257-0.68-0.257c-0.289,0-0.501,0.089-0.668,0.257
		c-0.302,0.302-0.335,0.803-0.335,1.404c0,0.603,0.034,1.115,0.335,1.416c0.167,0.167,0.379,0.257,0.668,0.257
		c0.291,0,0.513-0.09,0.68-0.257c0.302-0.301,0.335-0.813,0.335-1.416C114.182,143.431,114.149,142.93,113.847,142.628
		L113.847,142.628z M114.973,146.296c-0.355,0.379-0.947,0.713-1.806,0.713c-0.858,0-1.438-0.334-1.794-0.713
		c-0.525-0.547-0.658-1.204-0.658-2.264c0-1.048,0.133-1.706,0.658-2.252c0.356-0.379,0.937-0.714,1.794-0.714
		c0.859,0,1.45,0.335,1.806,0.714c0.524,0.546,0.658,1.204,0.658,2.252C115.631,145.092,115.497,145.749,114.973,146.296
		L114.973,146.296z"/>
	<path fill="#FFFFFF" d="M118.605,142.404v4.537h-1.45v-4.537h-0.602v-1.103h0.602v-0.726c0-0.825,0.513-1.66,1.695-1.66h0.824
		v1.227h-0.567c-0.346,0-0.502,0.188-0.502,0.523v0.636h1.069v1.103H118.605L118.605,142.404z"/>
	<path fill="#FFFFFF" d="M127.366,140.878c-0.267-0.323-0.624-0.491-1.159-0.491h-1.171v5.174h1.171
		c0.535,0,0.893-0.168,1.159-0.491c0.29-0.356,0.336-0.926,0.336-2.13C127.702,141.736,127.656,141.234,127.366,140.878
		L127.366,140.878z M128.448,146.185c-0.523,0.523-1.271,0.757-2.096,0.757h-2.865v-7.937h2.865c0.825,0,1.572,0.234,2.096,0.758
		c0.891,0.893,0.803,1.983,0.803,3.177S129.339,145.293,128.448,146.185L128.448,146.185z"/>
	<path fill="#FFFFFF" d="M133.899,142.873c-0.155-0.346-0.479-0.602-0.97-0.602c-0.49,0-0.813,0.256-0.971,0.602
		c-0.088,0.212-0.121,0.368-0.133,0.625h2.207C134.021,143.241,133.989,143.085,133.899,142.873L133.899,142.873z M131.826,144.49
		c0,0.747,0.457,1.293,1.271,1.293c0.636,0,0.948-0.179,1.315-0.546l0.881,0.857c-0.59,0.591-1.159,0.914-2.207,0.914
		c-1.372,0-2.688-0.624-2.688-2.977c0-1.895,1.026-2.966,2.531-2.966c1.617,0,2.531,1.182,2.531,2.777v0.646H131.826L131.826,144.49
		z"/>
	<path fill="#FFFFFF" d="M138.76,147.009c-0.915,0-1.739-0.1-2.476-0.836l0.948-0.947c0.479,0.479,1.103,0.546,1.549,0.546
		c0.502,0,1.026-0.167,1.026-0.603c0-0.29-0.157-0.489-0.612-0.534l-0.915-0.09c-1.048-0.101-1.695-0.557-1.695-1.627
		c0-1.204,1.06-1.852,2.242-1.852c0.901,0,1.66,0.157,2.218,0.68l-0.893,0.904c-0.334-0.301-0.847-0.391-1.349-0.391
		c-0.58,0-0.824,0.268-0.824,0.558c0,0.212,0.089,0.457,0.602,0.501l0.914,0.09c1.148,0.111,1.728,0.725,1.728,1.705
		C141.223,146.396,140.131,147.009,138.76,147.009L138.76,147.009z"/>
	<path fill="#FFFFFF" d="M142.384,146.941v-5.808h1.449v5.808H142.384L142.384,146.941z M142.36,140.143v-1.183h1.482v1.183H142.36
		L142.36,140.143z"/>
	<path fill="#FFFFFF" d="M147.537,142.371c-0.858,0-0.947,0.736-0.947,1.505c0,0.77,0.089,1.517,0.947,1.517
		c0.859,0,0.959-0.747,0.959-1.517C148.496,143.107,148.396,142.371,147.537,142.371L147.537,142.371z M147.393,149.138
		c-0.892,0-1.505-0.178-2.107-0.758l0.903-0.914c0.324,0.312,0.646,0.446,1.138,0.446c0.869,0,1.17-0.613,1.17-1.204v-0.591
		c-0.379,0.424-0.814,0.579-1.383,0.579s-1.059-0.189-1.382-0.512c-0.546-0.547-0.591-1.294-0.591-2.309
		c0-1.014,0.045-1.75,0.591-2.296c0.323-0.323,0.825-0.514,1.394-0.514c0.613,0,1.015,0.168,1.416,0.614v-0.547h1.404v5.597
		C149.945,148.123,148.953,149.138,147.393,149.138L147.393,149.138z"/>
	<path fill="#FFFFFF" d="M154.856,146.941v-3.511c0-0.792-0.501-1.06-0.958-1.06s-0.97,0.268-0.97,1.06v3.511h-1.449v-5.808h1.417
		v0.535c0.378-0.401,0.913-0.603,1.448-0.603c0.58,0,1.048,0.19,1.37,0.514c0.469,0.469,0.592,1.015,0.592,1.65v3.711H154.856
		L154.856,146.941z"/>
	<path fill="#FFFFFF" d="M163.396,144.49h-1.149c-0.523,0-0.813,0.245-0.813,0.657c0,0.401,0.269,0.669,0.837,0.669
		c0.4,0,0.657-0.033,0.914-0.279c0.155-0.145,0.212-0.378,0.212-0.735V144.49L163.396,144.49z M163.43,146.941v-0.501
		c-0.391,0.39-0.759,0.558-1.427,0.558c-0.659,0-1.138-0.168-1.482-0.513c-0.312-0.323-0.48-0.792-0.48-1.305
		c0-0.926,0.636-1.683,1.985-1.683h1.371v-0.291c0-0.635-0.312-0.913-1.081-0.913c-0.558,0-0.814,0.134-1.115,0.479l-0.925-0.902
		c0.567-0.624,1.125-0.804,2.095-0.804c1.628,0,2.475,0.691,2.475,2.052v3.823H163.43L163.43,146.941z"/>
	<path fill="#FFFFFF" d="M169.716,146.941v-3.511c0-0.792-0.502-1.06-0.957-1.06c-0.458,0-0.972,0.268-0.972,1.06v3.511h-1.448
		v-5.808h1.416v0.535c0.379-0.401,0.914-0.603,1.449-0.603c0.579,0,1.048,0.19,1.372,0.514c0.467,0.469,0.59,1.015,0.59,1.65v3.711
		H169.716L169.716,146.941z"/>
	<path fill="#FFFFFF" d="M174.897,142.371c-0.871,0-0.982,0.714-0.982,1.661c0,0.948,0.111,1.673,0.982,1.673
		c0.869,0,0.992-0.725,0.992-1.673C175.89,143.085,175.767,142.371,174.897,142.371L174.897,142.371z M175.922,146.941v-0.546
		c-0.4,0.446-0.825,0.613-1.438,0.613c-0.569,0-1.104-0.2-1.427-0.523c-0.58-0.58-0.592-1.583-0.592-2.453
		c0-0.869,0.012-1.861,0.592-2.441c0.323-0.323,0.847-0.524,1.415-0.524c0.592,0,1.037,0.157,1.417,0.58v-2.642h1.448v7.937H175.922
		L175.922,146.941z"/>
	<path fill="#FFFFFF" d="M184.327,141.346l-1.004,2.888h1.973L184.327,141.346L184.327,141.346z M186.177,146.941l-0.467-1.404
		h-2.82l-0.48,1.404h-1.617l2.888-7.937h1.216l2.897,7.937H186.177L186.177,146.941z"/>
	<path fill="#FFFFFF" d="M191.944,142.717c-0.224-0.223-0.413-0.346-0.77-0.346c-0.445,0-0.937,0.335-0.937,1.07v3.5h-1.449v-5.808
		h1.416v0.558c0.278-0.334,0.836-0.625,1.46-0.625c0.569,0,0.971,0.146,1.371,0.548L191.944,142.717L191.944,142.717z"/>
	<path fill="#FFFFFF" d="M196.034,146.941c-1.182,0-1.683-0.835-1.683-1.66v-2.877h-0.613v-1.103h0.613v-1.717h1.449v1.717h1.025
		v1.103h-1.025v2.787c0,0.335,0.156,0.524,0.501,0.524h0.524v1.226H196.034L196.034,146.941z"/>
</g>
</svg>
